<?xml version="1.0" standalone="no"?>
<!DOCTYPE svg PUBLIC "-//W3C//DTD SVG 20010904//EN"
 "http://www.w3.org/TR/2001/REC-SVG-20010904/DTD/svg10.dtd">
<svg version="1.0" xmlns="http://www.w3.org/2000/svg"
 width="360.000000pt" height="360.000000pt" viewBox="0 0 360.000000 360.000000"
 preserveAspectRatio="xMidYMid meet">
<metadata>
Created by potrace 1.14, written by Peter Selinger 2001-2017
</metadata>
<g transform="translate(0.000000,360.000000) scale(0.100000,-0.100000)"
fill="#000000" stroke="none">
<path d="M759 3056 c-127 -35 -256 -139 -317 -254 -46 -87 -53 -112 -60 -230
l-7 -102 75 0 75 0 3 78 c4 133 51 227 151 302 106 80 37 75 1121 75 1084 0
1015 5 1121 -75 100 -75 147 -169 151 -302 l3 -78 73 0 72 0 0 83 c0 98 -16
163 -61 248 -63 118 -192 220 -323 255 -72 19 -2007 19 -2077 0z"/>
<path d="M263 2420 c-46 -27 -41 -34 5 -8 46 27 48 28 36 28 -5 0 -24 -9 -41
-20z"/>
<path d="M591 2437 c16 -12 79 -45 79 -42 0 7 -63 45 -74 45 -5 0 -7 -1 -5 -3z"/>
<path d="M2963 2420 c-46 -27 -41 -34 5 -8 46 27 48 28 36 28 -5 0 -24 -9 -41
-20z"/>
<path d="M3315 2423 c17 -8 53 -34 80 -56 35 -29 43 -32 25 -12 -27 30 -108
85 -124 85 -6 -1 3 -8 19 -17z"/>
<path d="M184 2358 l-29 -33 33 29 c17 17 32 31 32 33 0 8 -8 1 -36 -29z"/>
<path d="M680 2387 c0 -2 15 -16 33 -33 l32 -29 -29 33 c-28 30 -36 37 -36 29z"/>
<path d="M2884 2358 l-29 -33 33 29 c30 28 37 36 29 36 -2 0 -16 -15 -33 -32z"/>
<path d="M763 2281 c12 -22 23 -38 25 -36 5 5 -26 63 -37 69 -5 4 0 -12 12
-33z"/>
<path d="M2830 2288 c-11 -18 -20 -37 -20 -42 0 -12 1 -10 28 37 26 45 19 50
-8 5z"/>
<path d="M3463 2281 c12 -22 23 -38 25 -36 5 5 -26 63 -37 69 -5 4 0 -12 12
-33z"/>
<path d="M120 2269 c-7 -11 -10 -23 -7 -25 2 -2 9 7 15 21 14 30 7 33 -8 4z"/>
<path d="M91 2184 c0 -11 3 -14 6 -6 3 7 2 16 -1 19 -3 4 -6 -2 -5 -13z"/>
<path d="M801 2184 c0 -11 3 -14 6 -6 3 7 2 16 -1 19 -3 4 -6 -2 -5 -13z"/>
<path d="M2791 2184 c0 -11 3 -14 6 -6 3 7 2 16 -1 19 -3 4 -6 -2 -5 -13z"/>
<path d="M3501 2184 c0 -11 3 -14 6 -6 3 7 2 16 -1 19 -3 4 -6 -2 -5 -13z"/>
<path d="M82 1518 l-2 -647 22 -21 c20 -18 33 -20 147 -18 l126 2 -126 3
c-106 3 -129 6 -143 21 -14 17 -16 85 -19 663 l-2 644 -3 -647z"/>
<path d="M814 2020 c0 -80 2 -112 3 -72 2 39 2 105 0 145 -1 39 -3 7 -3 -73z"/>
<path d="M2784 2020 c0 -80 2 -112 3 -72 2 39 2 105 0 145 -1 39 -3 7 -3 -73z"/>
<path d="M3512 1519 c-2 -607 -3 -647 -20 -662 -14 -13 -45 -17 -142 -20
l-125 -3 126 -2 c120 -2 127 -1 147 21 l22 23 -3 645 -2 644 -3 -646z"/>
<path d="M1308 1872 l-488 -2 0 -70 0 -70 451 -2 451 -3 1 -150 2 -150 75 0
75 0 2 150 1 150 451 3 451 2 0 70 0 70 -479 0 c-264 0 -485 1 -493 3 -7 1
-232 1 -500 -1z"/>
<path d="M814 1575 c0 -82 2 -115 3 -72 2 43 2 110 0 150 -1 40 -3 5 -3 -78z"/>
<path d="M2784 1575 c0 -82 2 -115 3 -72 2 43 2 110 0 150 -1 40 -3 5 -3 -78z"/>
<path d="M1053 1413 c126 -2 328 -2 450 0 122 1 20 2 -228 2 -247 0 -347 -1
-222 -2z"/>
<path d="M2103 1413 c126 -2 328 -2 450 0 122 1 20 2 -228 2 -247 0 -347 -1
-222 -2z"/>
<path d="M1163 833 c350 -2 924 -2 1275 0 350 1 63 2 -638 2 -701 0 -988 -1
-637 -2z"/>
<path d="M380 697 c0 -121 2 -136 20 -152 26 -24 76 -23 100 1 17 16 19 36 21
149 l1 130 -71 3 -71 3 0 -134z"/>
<path d="M3080 697 c0 -121 2 -136 20 -152 25 -22 76 -22 101 1 17 15 19 32
19 151 l0 133 -70 0 -70 0 0 -133z"/>
</g>
</svg>
